<?xml version="1.0" standalone="no"?>
<!DOCTYPE svg PUBLIC "-//W3C//DTD SVG 20010904//EN"
 "http://www.w3.org/TR/2001/REC-SVG-20010904/DTD/svg10.dtd">
<svg version="1.0" xmlns="http://www.w3.org/2000/svg"
 width="302.000000pt" height="302.000000pt" viewBox="0 0 302.000000 302.000000"
 preserveAspectRatio="xMidYMid meet">
<metadata>
Created by potrace 1.13, written by Peter Selinger 2001-2015
</metadata>
<g transform="translate(0.000000,302.000000) scale(0.100000,-0.100000)"
fill="#000000" stroke="none">
<path d="M310 2105 c-8 -9 -8 -15 -2 -15 6 0 17 -6 24 -13 48 -47 141 -116
149 -111 5 3 8 1 7 -3 -2 -5 24 -31 57 -58 33 -26 69 -59 80 -72 20 -24 21
-24 42 -5 12 10 41 27 65 37 24 11 45 22 48 25 3 3 11 5 18 6 6 1 20 2 30 3 9
1 28 11 42 22 24 19 24 20 2 9 -18 -9 -27 -8 -38 1 -11 9 -18 9 -26 1 -18 -18
-35 -15 -59 11 -14 14 -23 18 -26 10 -6 -16 -33 -5 -33 13 0 8 -8 15 -17 16
-10 0 -23 2 -30 2 -19 2 -28 16 -10 16 21 0 31 17 16 26 -7 4 -9 3 -6 -3 4 -6
-5 -13 -21 -16 -15 -3 -30 -1 -33 5 -4 7 -9 6 -13 -1 -4 -6 -2 -11 3 -11 6 0
11 -4 11 -8 0 -5 -6 -9 -14 -9 -16 0 -13 31 6 56 7 9 8 13 4 9 -5 -4 -15 0
-23 10 -13 15 -13 15 -3 -6 8 -17 8 -23 -3 -27 -20 -8 -89 24 -81 37 5 7 3 8
-6 3 -9 -5 -11 -1 -6 16 3 13 3 18 0 12 -3 -7 -12 -13 -20 -13 -8 0 -14 -5
-14 -11 0 -5 4 -7 10 -4 6 4 7 -1 3 -11 -4 -11 -8 -13 -11 -6 -2 7 -9 9 -14 6
-7 -4 -8 -2 -4 4 4 7 2 12 -4 12 -6 0 -8 5 -5 10 4 6 -5 10 -22 8 -33 -2 -56
9 -48 23 10 15 -12 10 -25 -6z"/>
</g>
</svg>
